<svg xmlns="http://www.w3.org/2000/svg" xmlns:xlink="http://www.w3.org/1999/xlink" contentStyleType="text/css" data-diagram-type="DESCRIPTION" height="1258px" preserveAspectRatio="none" style="width:942px;height:1258px;background:#FFFFFF;" version="1.1" viewBox="0 0 942 1258" width="942px" zoomAndPan="magnify"><?plantuml 1.2026.6?><defs/><g><g class="title" data-source-line="28"><text fill="#000000" font-family="Segoe UI" font-size="14" font-weight="700" lengthAdjust="spacing" textLength="235.457" x="349.7715" y="25.1074">Module 2 - Client System (Tharinsa)</text></g><!--cluster Client Module--><g class="cluster" data-qualified-name="Client Module" data-source-line="33" id="ent0003"><rect fill="#F7FAFC" height="1056" rx="2.5" ry="2.5" style="stroke:#2D3748;stroke-width:1;" width="855" x="71" y="43.6211"/><text fill="#000000" font-family="Segoe UI" font-size="13" font-weight="700" lengthAdjust="spacing" textLength="86.0742" x="455.4629" y="59.6494">Client Module</text></g><!--entity VIS--><g class="entity" data-qualified-name="VIS" data-source-line="30" id="ent0001"><ellipse cx="24.2146" cy="142.6211" fill="#FEEBC8" rx="8" ry="8" style="stroke:#C05621;stroke-width:0.5;"/><path d="M24.2146,150.6211 L24.2146,177.6211 M11.2146,158.6211 L37.2146,158.6211 M24.2146,177.6211 L11.2146,192.6211 M24.2146,177.6211 L37.2146,192.6211" fill="none" style="stroke:#C05621;stroke-width:0.5;"/><text fill="#000000" font-family="Segoe UI" font-size="13" lengthAdjust="spacing" textLength="36.4292" x="6" y="208.1494">Visitor</text></g><!--entity CLI--><g class="entity" data-qualified-name="CLI" data-source-line="31" id="ent0002"><ellipse cx="23.9531" cy="404.6211" fill="#FEEBC8" rx="8" ry="8" style="stroke:#C05621;stroke-width:0.5;"/><path d="M23.9531,412.6211 L23.9531,439.6211 M10.9531,420.6211 L36.9531,420.6211 M23.9531,439.6211 L10.9531,454.6211 M23.9531,439.6211 L36.9531,454.6211" fill="none" style="stroke:#C05621;stroke-width:0.5;"/><text fill="#000000" font-family="Segoe UI" font-size="13" lengthAdjust="spacing" textLength="32.9063" x="7.5" y="470.1494">Client</text></g><!--entity UC1--><g class="entity" data-qualified-name="Client Module.UC1" data-source-line="35" id="ent0004"><ellipse cx="191.0393" cy="234.629" fill="#EBF4FF" rx="78.0393" ry="18.0079" style="stroke:#2B6CB0;stroke-width:0.5;"/><text fill="#1A202C" font-family="Segoe UI" font-size="13" lengthAdjust="spacing" textLength="122.6748" x="129.7019" y="239.7745">Browse Landing Page</text></g><!--entity UC2--><g class="entity" data-qualified-name="Client Module.UC2" data-source-line="36" id="ent0005"><ellipse cx="191.1142" cy="298.482" fill="#EBF4FF" rx="112.1142" ry="27.3609" style="stroke:#2B6CB0;stroke-width:0.5;"/><text fill="#1A202C" font-family="Segoe UI" font-size="13" lengthAdjust="spacing" textLength="152.5342" x="114.8471" y="294.8512">View Public Content Pages</text><text fill="#1A202C" font-family="Segoe UI" font-size="13" lengthAdjust="spacing" textLength="154.8955" x="113.6665" y="312.1422">(About / Careers / Contact)</text></g><!--entity UC3--><g class="entity" data-qualified-name="Client Module.UC3" data-source-line="37" id="ent0006"><ellipse cx="515.2283" cy="207.5668" fill="#EBF4FF" rx="77.7283" ry="17.9457" style="stroke:#2B6CB0;stroke-width:0.5;"/><text fill="#1A202C" font-family="Segoe UI" font-size="13" lengthAdjust="spacing" textLength="121.9131" x="454.2718" y="212.7123">Submit Contact Form</text></g><!--entity UC4--><g class="entity" data-qualified-name="Client Module.UC4" data-source-line="39" id="ent0007"><ellipse cx="191.0145" cy="414.724" fill="#EBF4FF" rx="86.0145" ry="19.6029" style="stroke:#2B6CB0;stroke-width:0.5;"/><text fill="#1A202C" font-family="Segoe UI" font-size="13" lengthAdjust="spacing" textLength="141.7432" x="120.1429" y="419.8695">Explore Service Category</text></g><!--entity UC5--><g class="entity" data-qualified-name="Client Module.UC5" data-source-line="40" id="ent0008"><ellipse cx="515.0655" cy="503.7342" fill="#EBF4FF" rx="83.5655" ry="19.1131" style="stroke:#2B6CB0;stroke-width:0.5;"/><text fill="#1A202C" font-family="Segoe UI" font-size="13" lengthAdjust="spacing" textLength="135.9731" x="447.0789" y="508.8797">View Top Five Providers</text></g><!--entity UC6--><g class="entity" data-qualified-name="Client Module.UC6" data-source-line="41" id="ent0009"><ellipse cx="514.8733" cy="446.4958" fill="#EBF4FF" rx="87.3733" ry="19.8747" style="stroke:#2B6CB0;stroke-width:0.5;"/><text fill="#1A202C" font-family="Segoe UI" font-size="13" lengthAdjust="spacing" textLength="144.917" x="442.4148" y="451.6413">Search Provider by Name</text></g><!--entity UC7--><g class="entity" data-qualified-name="Client Module.UC7" data-source-line="42" id="ent0010"><ellipse cx="515.0666" cy="388.6344" fill="#EBF4FF" rx="88.0666" ry="20.0133" style="stroke:#2B6CB0;stroke-width:0.5;"/><text fill="#1A202C" font-family="Segoe UI" font-size="13" lengthAdjust="spacing" textLength="146.5293" x="441.802" y="393.7799">Filter Providers by District</text></g><!--entity UC8--><g class="entity" data-qualified-name="Client Module.UC8" data-source-line="43" id="ent0011"><ellipse cx="514.7679" cy="559.7747" fill="#EBF4FF" rx="81.2679" ry="18.6536" style="stroke:#2B6CB0;stroke-width:0.5;"/><text fill="#1A202C" font-family="Segoe UI" font-size="13" lengthAdjust="spacing" textLength="130.4951" x="449.5203" y="564.9202">Preview Previous Work</text></g><!--entity UC9--><g class="entity" data-qualified-name="Client Module.UC9" data-source-line="44" id="ent0012"><ellipse cx="515.1275" cy="150.5466" fill="#EBF4FF" rx="92.6275" ry="20.9255" style="stroke:#2B6CB0;stroke-width:0.5;"/><text fill="#1A202C" font-family="Segoe UI" font-size="13" lengthAdjust="spacing" textLength="157.0283" x="436.6134" y="155.6921">View Provider Public Profile</text></g><!--entity UC10--><g class="entity" data-qualified-name="Client Module.UC10" data-source-line="45" id="ent0013"><ellipse cx="822.6555" cy="259.4522" fill="#EBF4FF" rx="74.6555" ry="17.3311" style="stroke:#2B6CB0;stroke-width:0.5;"/><text fill="#1A202C" font-family="Segoe UI" font-size="13" lengthAdjust="spacing" textLength="114.2959" x="765.5075" y="264.5977">View Portfolio Posts</text></g><!--entity UC11--><g class="entity" data-qualified-name="Client Module.UC11" data-source-line="46" id="ent0014"><ellipse cx="822.7154" cy="313.5642" fill="#EBF4FF" rx="80.2154" ry="18.4431" style="stroke:#2B6CB0;stroke-width:0.5;"/><text fill="#1A202C" font-family="Segoe UI" font-size="13" lengthAdjust="spacing" textLength="127.9624" x="758.7342" y="318.7097">View Provider Reviews</text></g><!--entity UC12--><g class="entity" data-qualified-name="Client Module.UC12" data-source-line="48" id="ent0015"><ellipse cx="514.8894" cy="91.399" fill="#EBF4FF" rx="84.3894" ry="19.2779" style="stroke:#2B6CB0;stroke-width:0.5;"/><text fill="#1A202C" font-family="Segoe UI" font-size="13" lengthAdjust="spacing" textLength="137.9219" x="445.9284" y="96.5445">Create Booking Request</text></g><!--entity UC13--><g class="entity" data-qualified-name="Client Module.UC13" data-source-line="49" id="ent0016"><ellipse cx="822.6582" cy="204.8527" fill="#EBF4FF" rx="84.1582" ry="19.2316" style="stroke:#2B6CB0;stroke-width:0.5;"/><text fill="#1A202C" font-family="Segoe UI" font-size="13" lengthAdjust="spacing" textLength="137.376" x="753.9703" y="209.9982">Select Booking Location</text></g><!--entity UC14--><g class="entity" data-qualified-name="Client Module.UC14" data-source-line="50" id="ent0017"><ellipse cx="822.3367" cy="150.4884" fill="#EBF4FF" rx="72.3367" ry="16.8673" style="stroke:#2B6CB0;stroke-width:0.5;"/><text fill="#1A202C" font-family="Segoe UI" font-size="13" lengthAdjust="spacing" textLength="108.4243" x="768.1245" y="155.6339">Upload Job Photos</text></g><!--entity UC15--><g class="entity" data-qualified-name="Client Module.UC15" data-source-line="51" id="ent0018"><ellipse cx="822.3728" cy="93.5957" fill="#EBF4FF" rx="95.3728" ry="21.4746" style="stroke:#2B6CB0;stroke-width:0.5;"/><text fill="#1A202C" font-family="Segoe UI" font-size="13" lengthAdjust="spacing" textLength="163.2681" x="740.7388" y="98.7412">Validate Provider Availability</text></g><!--entity UC16--><g class="entity" data-qualified-name="Client Module.UC16" data-source-line="52" id="ent0019"><ellipse cx="191.1094" cy="176.843" fill="#EBF4FF" rx="99.1094" ry="22.2219" style="stroke:#2B6CB0;stroke-width:0.5;"/><text fill="#1A202C" font-family="Segoe UI" font-size="13" lengthAdjust="spacing" textLength="171.6787" x="105.27" y="181.9885">Redirect to Client Registration</text></g><!--entity UC17--><g class="entity" data-qualified-name="Client Module.UC17" data-source-line="54" id="ent0020"><ellipse cx="191.1326" cy="772.7476" fill="#EBF4FF" rx="71.1326" ry="16.6265" style="stroke:#2B6CB0;stroke-width:0.5;"/><text fill="#1A202C" font-family="Segoe UI" font-size="13" lengthAdjust="spacing" textLength="105.3267" x="138.4692" y="777.8931">View My Bookings</text></g><!--entity UC18--><g class="entity" data-qualified-name="Client Module.UC18" data-source-line="55" id="ent0021"><ellipse cx="514.9478" cy="785.4107" fill="#EBF4FF" rx="71.9478" ry="16.7896" style="stroke:#2B6CB0;stroke-width:0.5;"/><text fill="#1A202C" font-family="Segoe UI" font-size="13" lengthAdjust="spacing" textLength="107.4277" x="461.2339" y="790.5562">View Requests Tab</text></g><!--entity UC19--><g class="entity" data-qualified-name="Client Module.UC19" data-source-line="56" id="ent0022"><ellipse cx="515.1681" cy="838.8547" fill="#EBF4FF" rx="76.6681" ry="17.7336" style="stroke:#2B6CB0;stroke-width:0.5;"/><text fill="#1A202C" font-family="Segoe UI" font-size="13" lengthAdjust="spacing" textLength="119.3042" x="455.516" y="844.0002">View Jobs To Do Tab</text></g><!--entity UC20--><g class="entity" data-qualified-name="Client Module.UC20" data-source-line="57" id="ent0023"><ellipse cx="515.155" cy="894.7521" fill="#EBF4FF" rx="88.655" ry="20.131" style="stroke:#2B6CB0;stroke-width:0.5;"/><text fill="#1A202C" font-family="Segoe UI" font-size="13" lengthAdjust="spacing" textLength="147.894" x="441.208" y="899.8976">View Completed Jobs Tab</text></g><!--entity UC21--><g class="entity" data-qualified-name="Client Module.UC21" data-source-line="58" id="ent0024"><ellipse cx="190.9825" cy="715.5176" fill="#EBF4FF" rx="64.9825" ry="15.3965" style="stroke:#2B6CB0;stroke-width:0.5;"/><text fill="#1A202C" font-family="Segoe UI" font-size="13" lengthAdjust="spacing" textLength="88.8418" x="146.5617" y="720.6631">Cancel Booking</text></g><!--entity UC22--><g class="entity" data-qualified-name="Client Module.UC22" data-source-line="59" id="ent0025"><ellipse cx="191.0692" cy="648.8349" fill="#EBF4FF" rx="106.5692" ry="23.7138" style="stroke:#2B6CB0;stroke-width:0.5;"/><text fill="#1A202C" font-family="Segoe UI" font-size="13" lengthAdjust="spacing" textLength="188.2334" x="96.9525" y="653.9804">Respond to Reschedule Proposal</text></g><!--entity UC23--><g class="entity" data-qualified-name="Client Module.UC23" data-source-line="60" id="ent0026"><ellipse cx="191.2427" cy="838.8696" fill="#EBF4FF" rx="76.7427" ry="17.7485" style="stroke:#2B6CB0;stroke-width:0.5;"/><text fill="#1A202C" font-family="Segoe UI" font-size="13" lengthAdjust="spacing" textLength="119.4883" x="131.4985" y="844.0151">Start Pay and Review</text></g><!--entity UC24--><g class="entity" data-qualified-name="Client Module.UC24" data-source-line="61" id="ent0027"><ellipse cx="191.1197" cy="918.545" fill="#EBF4FF" rx="70.1197" ry="16.4239" style="stroke:#2B6CB0;stroke-width:0.5;"/><text fill="#1A202C" font-family="Segoe UI" font-size="13" lengthAdjust="spacing" textLength="102.6924" x="139.7735" y="923.6905">Download Invoice</text></g><!--entity UC25--><g class="entity" data-qualified-name="Client Module.UC25" data-source-line="63" id="ent0028"><ellipse cx="190.8042" cy="1007.6819" fill="#EBF4FF" rx="78.3042" ry="18.0608" style="stroke:#2B6CB0;stroke-width:0.5;"/><text fill="#1A202C" font-family="Segoe UI" font-size="13" lengthAdjust="spacing" textLength="123.3223" x="129.143" y="1012.8274">Manage Client Profile</text></g><!--entity UC26--><g class="entity" data-qualified-name="Client Module.UC26" data-source-line="64" id="ent0029"><ellipse cx="515.2042" cy="1065.6619" fill="#EBF4FF" rx="118.2042" ry="26.0408" style="stroke:#2B6CB0;stroke-width:0.5;"/><text fill="#1A202C" font-family="Segoe UI" font-size="13" lengthAdjust="spacing" textLength="213.5732" x="408.4176" y="1070.8074">Update Primary / Secondary Location</text></g><!--entity UC27--><g class="entity" data-qualified-name="Client Module.UC27" data-source-line="65" id="ent0030"><ellipse cx="515.1667" cy="949.4544" fill="#EBF4FF" rx="69.6667" ry="16.3333" style="stroke:#2B6CB0;stroke-width:0.5;"/><text fill="#1A202C" font-family="Segoe UI" font-size="13" lengthAdjust="spacing" textLength="101.5054" x="464.4141" y="954.6">Change Password</text></g><!--entity UC28--><g class="entity" data-qualified-name="Client Module.UC28" data-source-line="66" id="ent0031"><ellipse cx="514.8371" cy="1002.4885" fill="#EBF4FF" rx="79.8371" ry="18.3674" style="stroke:#2B6CB0;stroke-width:0.5;"/><text fill="#1A202C" font-family="Segoe UI" font-size="13" lengthAdjust="spacing" textLength="127.0483" x="451.3129" y="1007.634">Change Profile Picture</text></g><!--entity UC29--><g class="entity" data-qualified-name="Client Module.UC29" data-source-line="68" id="ent0032"><ellipse cx="190.8896" cy="360.599" fill="#EBF4FF" rx="70.3896" ry="16.4779" style="stroke:#2B6CB0;stroke-width:0.5;"/><text fill="#1A202C" font-family="Segoe UI" font-size="13" lengthAdjust="spacing" textLength="103.397" x="139.1911" y="365.7445">Submit Complaint</text></g><!--entity UC30--><g class="entity" data-qualified-name="Client Module.UC30" data-source-line="69" id="ent0033"><ellipse cx="515.1731" cy="324.8557" fill="#EBF4FF" rx="116.6731" ry="25.7346" style="stroke:#2B6CB0;stroke-width:0.5;"/><text fill="#1A202C" font-family="Segoe UI" font-size="13" lengthAdjust="spacing" textLength="210.2661" x="410.0401" y="330.0012">Identify Other Party from Booking ID</text></g><!--entity UC31--><g class="entity" data-qualified-name="Client Module.UC31" data-source-line="70" id="ent0034"><ellipse cx="515.1917" cy="262.5594" fill="#EBF4FF" rx="80.1917" ry="18.4383" style="stroke:#2B6CB0;stroke-width:0.5;"/><text fill="#1A202C" font-family="Segoe UI" font-size="13" lengthAdjust="spacing" textLength="127.9053" x="451.2391" y="267.7049">Select Complaint Type</text></g><!--entity UC32--><g class="entity" data-qualified-name="Client Module.UC32" data-source-line="72" id="ent0035"><ellipse cx="191.026" cy="560.6263" fill="#EBF4FF" rx="70.526" ry="16.5052" style="stroke:#2B6CB0;stroke-width:0.5;"/><text fill="#1A202C" font-family="Segoe UI" font-size="13" lengthAdjust="spacing" textLength="103.7524" x="139.1498" y="565.7718">View Notifications</text></g><!--entity UC33--><g class="entity" data-qualified-name="Client Module.UC33" data-source-line="73" id="ent0036"><ellipse cx="514.7805" cy="614.7772" fill="#EBF4FF" rx="78.7805" ry="18.1561" style="stroke:#2B6CB0;stroke-width:0.5;"/><text fill="#1A202C" font-family="Segoe UI" font-size="13" lengthAdjust="spacing" textLength="124.4839" x="452.5385" y="619.9227">View Announcements</text></g><!--entity UC34--><g class="entity" data-qualified-name="Client Module.UC34" data-source-line="74" id="ent0037"><ellipse cx="515.2496" cy="729.471" fill="#EBF4FF" rx="92.2496" ry="20.8499" style="stroke:#2B6CB0;stroke-width:0.5;"/><text fill="#1A202C" font-family="Segoe UI" font-size="13" lengthAdjust="spacing" textLength="156.165" x="437.1671" y="734.6165">View Personal Notifications</text></g><!--entity UC35--><g class="entity" data-qualified-name="Client Module.UC35" data-source-line="75" id="ent0038"><ellipse cx="514.7811" cy="670.7773" fill="#EBF4FF" rx="88.7811" ry="20.1562" style="stroke:#2B6CB0;stroke-width:0.5;"/><text fill="#1A202C" font-family="Segoe UI" font-size="13" lengthAdjust="spacing" textLength="148.186" x="440.6881" y="675.9228">Mark Notification as Read</text></g><g class="link" data-entity-1="ent0001" data-entity-2="ent0004" data-link-type="dependency" id="lnk39"><polygon fill="#4A5568" points="112.8475,222.1834,105.1414,216.0502,108.0079,220.927,103.1311,223.7935,112.8475,222.1834" style="stroke:#4A5568;stroke-width:1;stroke-linejoin:miter;stroke-miterlimit:10;"/><path d="M42.1903,188.514 C50.3784,195.312 60.6341,202.7819 71,207.6211 C84.0533,213.7149 93.7287,217.22 108.0079,220.927" fill="none" style="stroke:#4A5568;stroke-width:1;"/></g><g class="link" data-entity-1="ent0001" data-entity-2="ent0005" data-link-type="dependency" id="lnk40"><polygon fill="#4A5568" points="84.3084,271.0979,78.6968,263.0041,80.0363,268.5001,74.5403,269.8396,84.3084,271.0979" style="stroke:#4A5568;stroke-width:1;stroke-linejoin:miter;stroke-miterlimit:10;"/><path d="M37.1638,211.2814 C44.4554,228.8351 55.404,248.5486 71,261.6211 C75.1452,265.0956 75.3436,265.6466 80.0363,268.5001" fill="none" style="stroke:#4A5568;stroke-width:1;"/></g><g class="link" data-entity-1="ent0001" data-entity-2="ent0007" data-link-type="dependency" id="lnk41"><polygon fill="#4A5568" points="104.7357,407.0444,97.5757,400.2817,100.0197,405.3834,94.918,407.8274,104.7357,407.0444" style="stroke:#4A5568;stroke-width:1;stroke-linejoin:miter;stroke-miterlimit:10;"/><path d="M28.4233,211.5491 C34.0387,266.3252 47.0513,362.2042 71,386.6211 C80.2885,396.0912 87.4185,400.9451 100.0197,405.3834" fill="none" style="stroke:#4A5568;stroke-width:1;"/></g><g class="link" data-entity-1="ent0001" data-entity-2="ent0012" data-link-type="dependency" id="lnk42"><polygon fill="#4A5568" points="422.4335,136.4718,415.8025,129.1897,417.8558,134.4607,412.5848,136.514,422.4335,136.4718" style="stroke:#4A5568;stroke-width:1;stroke-linejoin:miter;stroke-miterlimit:10;"/><path d="M32.6207,133.7945 C39.0146,112.4051 50.5351,87.6223 71,74.6211 C186.5438,1.2167 265.9361,-2.5483 379,74.6211 C397.1329,86.9974 380.5588,106.0724 397,120.6211 C404.4594,127.2219 408.601,130.3949 417.8558,134.4607" fill="none" style="stroke:#4A5568;stroke-width:1;"/></g><g class="link" data-entity-1="ent0002" data-entity-2="ent0004" data-link-type="dependency" id="lnk43"><polygon fill="#4A5568" points="112.79,240.1967,103.0423,238.7887,107.9776,241.5533,105.213,246.4886,112.79,240.1967" style="stroke:#4A5568;stroke-width:1;stroke-linejoin:miter;stroke-miterlimit:10;"/><path d="M24.5303,395.8223 C26.241,356.7381 35.1712,297.3826 71,262.6211 C82.4245,251.5369 92.5564,245.9007 107.9776,241.5533" fill="none" style="stroke:#4A5568;stroke-width:1;"/></g><g class="link" data-entity-1="ent0002" data-entity-2="ent0005" data-link-type="dependency" id="lnk44"><polygon fill="#4A5568" points="83.5713,326.2837,73.8285,327.7249,79.3486,328.9611,78.1124,334.4812,83.5713,326.2837" style="stroke:#4A5568;stroke-width:1;stroke-linejoin:miter;stroke-miterlimit:10;"/><path d="M34.8004,395.6335 C41.783,375.1869 53.1682,351.2179 71,335.6211 C74.9084,332.2026 74.9071,331.7772 79.3486,328.9611" fill="none" style="stroke:#4A5568;stroke-width:1;"/></g><g class="link" data-entity-1="ent0002" data-entity-2="ent0006" data-link-type="dependency" id="lnk45"><polygon fill="#4A5568" points="437.4201,201.6012,429.8549,195.295,432.6102,200.2355,427.6697,202.9908,437.4201,201.6012" style="stroke:#4A5568;stroke-width:1;stroke-linejoin:miter;stroke-miterlimit:10;"/><path d="M28.4821,396.0666 C35.613,321.2832 52.7503,162.3656 71,145.6211 C121.5186,99.269 323.2672,87.6899 379,127.6211 C399.2223,142.1099 378.5471,163.9371 397,180.6211 C408.2881,190.8271 417.8423,196.0422 432.6102,200.2355" fill="none" style="stroke:#4A5568;stroke-width:1;"/></g><g class="link" data-entity-1="ent0002" data-entity-2="ent0007" data-link-type="dependency" id="lnk46"><polygon fill="#4A5568" points="104.6936,424.9613,95.2776,422.0733,99.7299,425.5629,96.2403,430.0152,104.6936,424.9613" style="stroke:#4A5568;stroke-width:1;stroke-linejoin:miter;stroke-miterlimit:10;"/><path d="M40.5228,432.7395 C55.6851,430.9017 75.0581,428.5534 99.7299,425.5629" fill="none" style="stroke:#4A5568;stroke-width:1;"/></g><g class="link" data-entity-1="ent0002" data-entity-2="ent0012" data-link-type="dependency" id="lnk47"><polygon fill="#4A5568" points="422.4983,132.0299,415.4132,125.1887,417.8008,130.317,412.6725,132.7046,422.4983,132.0299" style="stroke:#4A5568;stroke-width:1;stroke-linejoin:miter;stroke-miterlimit:10;"/><path d="M27.5474,396.111 C33.3874,313.9454 48.956,127.4485 71,109.6211 C157.4194,39.7321 209.8649,104.9545 321,103.6211 C346.7759,103.3118 355.046,94.0975 379,103.6211 C389.2254,107.6865 387.3639,115.3077 397,120.6211 C404.9879,125.0256 408.9419,127.0866 417.8008,130.317" fill="none" style="stroke:#4A5568;stroke-width:1;"/></g><g class="link" data-entity-1="ent0002" data-entity-2="ent0015" data-link-type="dependency" id="lnk48"><polygon fill="#4A5568" points="464.441,72.0051,457.3015,65.2207,459.73,70.3298,454.6209,72.7583,464.441,72.0051" style="stroke:#4A5568;stroke-width:1;stroke-linejoin:miter;stroke-miterlimit:10;"/><path d="M27.2195,395.7609 C31.1153,335.6776 40.6743,216.8045 60,117.6211 C63.4444,99.9439 56.6405,89.4907 71,78.6211 C187.7157,-9.7285 370.9083,38.7429 459.73,70.3298" fill="none" style="stroke:#4A5568;stroke-width:1;"/></g><g class="link" data-entity-1="ent0002" data-entity-2="ent0020" data-link-type="dependency" id="lnk49"><polygon fill="#4A5568" points="119.7963,768.1363,112.0451,762.0602,114.9476,766.9157,110.0921,769.8181,119.7963,768.1363" style="stroke:#4A5568;stroke-width:1;stroke-linejoin:miter;stroke-miterlimit:10;"/><path d="M33.1452,473.1309 C41.2261,512.5335 53.4629,575.6068 61,630.6211 C64.3316,654.9392 55.1991,721.8381 71,740.6211 C83.2571,755.1915 96.5259,762.278 114.9476,766.9157" fill="none" style="stroke:#4A5568;stroke-width:1;"/></g><g class="link" data-entity-1="ent0002" data-entity-2="ent0024" data-link-type="dependency" id="lnk50"><polygon fill="#4A5568" points="125.8204,711.5217,117.9195,705.6416,120.9427,710.4229,116.1614,713.446,125.8204,711.5217" style="stroke:#4A5568;stroke-width:1;stroke-linejoin:miter;stroke-miterlimit:10;"/><path d="M38.8879,473.2855 C46.6668,496.5519 55.8183,526.9347 61,554.6211 C66.2079,582.4475 53.0775,659.7072 71,681.6211 C84.4668,698.087 100.4367,705.8034 120.9427,710.4229" fill="none" style="stroke:#4A5568;stroke-width:1;"/></g><g class="link" data-entity-1="ent0002" data-entity-2="ent0025" data-link-type="dependency" id="lnk51"><polygon fill="#4A5568" points="117.9649,625.0274,111.7852,617.3586,113.5168,622.7439,108.1315,624.4756,117.9649,625.0274" style="stroke:#4A5568;stroke-width:1;stroke-linejoin:miter;stroke-miterlimit:10;"/><path d="M40.6232,459.238 C47.9923,472.0041 56.2023,488.1333 61,503.6211 C71.9943,539.1129 49.8613,556.0646 71,586.6211 C82.5304,603.2887 95.5194,613.5046 113.5168,622.7439" fill="none" style="stroke:#4A5568;stroke-width:1;"/></g><g class="link" data-entity-1="ent0002" data-entity-2="ent0026" data-link-type="dependency" id="lnk52"><polygon fill="#4A5568" points="114.2639,827.028,107.1609,820.2055,109.562,825.3275,104.44,827.7286,114.2639,827.028" style="stroke:#4A5568;stroke-width:1;stroke-linejoin:miter;stroke-miterlimit:10;"/><path d="M28.7818,473.3582 C37.8352,564.56 60.76,786.1155 71,798.6211 C82.0467,812.1119 93.1084,819.3767 109.562,825.3275" fill="none" style="stroke:#4A5568;stroke-width:1;"/></g><g class="link" data-entity-1="ent0002" data-entity-2="ent0027" data-link-type="dependency" id="lnk53"><polygon fill="#4A5568" points="121.4443,902.0789,114.6552,894.9439,116.8236,900.1686,111.5988,902.337,121.4443,902.0789" style="stroke:#4A5568;stroke-width:1;stroke-linejoin:miter;stroke-miterlimit:10;"/><path d="M24.3294,473.4084 C23.4483,567.2987 25.8931,803.6334 71,865.6211 C83.309,882.5366 97.6385,892.2373 116.8236,900.1686" fill="none" style="stroke:#4A5568;stroke-width:1;"/></g><g class="link" data-entity-1="ent0002" data-entity-2="ent0028" data-link-type="dependency" id="lnk54"><polygon fill="#4A5568" points="130.6308,989.5696,124.0008,982.2865,126.0533,987.5579,120.782,989.6104,130.6308,989.5696" style="stroke:#4A5568;stroke-width:1;stroke-linejoin:miter;stroke-miterlimit:10;"/><path d="M26.3282,473.1645 C30.4886,585.3042 44.5913,905.9359 71,944.6211 C85.1683,965.3757 103.8438,977.797 126.0533,987.5579" fill="none" style="stroke:#4A5568;stroke-width:1;"/></g><g class="link" data-entity-1="ent0002" data-entity-2="ent0032" data-link-type="dependency" id="lnk55"><polygon fill="#4A5568" points="120.4596,368.647,110.796,366.7459,115.5845,369.7575,112.5729,374.5461,120.4596,368.647" style="stroke:#4A5568;stroke-width:1;stroke-linejoin:miter;stroke-miterlimit:10;"/><path d="M40.746,413.1297 C48.7809,403.6369 59.3207,393.1677 71,386.6211 C86.0342,378.194 98.6816,373.6081 115.5845,369.7575" fill="none" style="stroke:#4A5568;stroke-width:1;"/></g><g class="link" data-entity-1="ent0002" data-entity-2="ent0035" data-link-type="dependency" id="lnk56"><polygon fill="#4A5568" points="168.1851,543.9624,163.4598,535.3211,164.2112,540.9278,158.6045,541.6793,168.1851,543.9624" style="stroke:#4A5568;stroke-width:1;stroke-linejoin:miter;stroke-miterlimit:10;"/><path d="M40.5228,446.4749 C70.0451,469.0192 130.3754,515.0896 164.2112,540.9278" fill="none" style="stroke:#4A5568;stroke-width:1;"/></g><g class="link" data-entity-1="ent0005" data-entity-2="ent0006" data-link-type="dependency" id="lnk57"><polygon fill="#4A5568" points="437.1519,192.2894,428.5308,187.5275,432.1706,191.8579,427.8402,195.4977,437.1519,192.2894" style="stroke:#4A5568;stroke-width:1;stroke-linejoin:miter;stroke-miterlimit:10;"/><path d="M291.2931,270.9821 C295.4578,268.1595 299.3919,265.0489 303,261.6211 C318.9163,246.5001 303.1273,228.3703 321,215.6211 C354.0347,192.0563 393.977,188.5488 432.1706,191.8579" fill="none" style="stroke:#4A5568;stroke-width:1;stroke-dasharray:7,7;"/><text fill="#000000" font-family="Segoe UI" font-size="13" lengthAdjust="spacing" textLength="52.1333" x="324" y="188.6494">&#171;extend&#187;</text></g><g class="link" data-entity-1="ent0007" data-entity-2="ent0008" data-link-type="dependency" id="lnk58"><polygon fill="#4A5568" points="434.0439,484.5997,426.2289,478.6059,429.1825,483.4304,424.358,486.384,434.0439,484.5997" style="stroke:#4A5568;stroke-width:1;stroke-linejoin:miter;stroke-miterlimit:10;"/><path d="M249.2093,434.196 C271.5066,441.5757 297.3448,449.8223 321,456.6211 C354.4627,466.2386 363.1801,467.347 397,475.6211 C408.9698,478.5495 416.7754,480.446 429.1825,483.4304" fill="none" style="stroke:#4A5568;stroke-width:1;stroke-dasharray:7,7;"/><text fill="#000000" font-family="Segoe UI" font-size="13" lengthAdjust="spacing" textLength="54.6216" x="323" y="451.6494">&#171;include&#187;</text></g><g class="link" data-entity-1="ent0007" data-entity-2="ent0009" data-link-type="dependency" id="lnk59"><polygon fill="#4A5568" points="427.3782,438.0127,418.8179,433.1423,422.4027,437.5183,418.0268,441.1031,427.3782,438.0127" style="stroke:#4A5568;stroke-width:1;stroke-linejoin:miter;stroke-miterlimit:10;"/><path d="M277.0229,423.0706 C323.4182,427.6813 375.76,432.883 422.4027,437.5183" fill="none" style="stroke:#4A5568;stroke-width:1;stroke-dasharray:7,7;"/><text fill="#000000" font-family="Segoe UI" font-size="13" lengthAdjust="spacing" textLength="52.1333" x="324" y="422.6494">&#171;extend&#187;</text></g><g class="link" data-entity-1="ent0007" data-entity-2="ent0010" data-link-type="dependency" id="lnk60"><polygon fill="#4A5568" points="426.8863,387.0075,417.8668,383.0517,421.8864,387.032,417.906,391.0516,426.8863,387.0075" style="stroke:#4A5568;stroke-width:1;stroke-linejoin:miter;stroke-miterlimit:10;"/><path d="M277.0825,397.4565 C291.6772,395.0852 306.7341,392.9947 321,391.6211 C355.5242,388.2968 388.6794,387.1947 421.8864,387.032" fill="none" style="stroke:#4A5568;stroke-width:1;stroke-dasharray:7,7;"/><text fill="#000000" font-family="Segoe UI" font-size="13" lengthAdjust="spacing" textLength="52.1333" x="324" y="382.6494">&#171;extend&#187;</text></g><g class="link" data-entity-1="ent0007" data-entity-2="ent0011" data-link-type="dependency" id="lnk61"><polygon fill="#4A5568" points="433.4277,542.6698,425.7503,536.5007,428.5941,541.3908,423.704,544.2346,433.4277,542.6698" style="stroke:#4A5568;stroke-width:1;stroke-linejoin:miter;stroke-miterlimit:10;"/><path d="M218.9726,434.2864 C256.7774,460.8187 328.5867,507.5257 397,531.6211 C408.623,535.7147 416.2694,538.1297 428.5941,541.3908" fill="none" style="stroke:#4A5568;stroke-width:1;stroke-dasharray:7,7;"/><text fill="#000000" font-family="Segoe UI" font-size="13" lengthAdjust="spacing" textLength="52.1333" x="324" y="494.6494">&#171;extend&#187;</text></g><g class="link" data-entity-1="ent0007" data-entity-2="ent0012" data-link-type="dependency" id="lnk62"><polygon fill="#4A5568" points="422.4649,163.9143,412.6161,163.9528,417.9038,165.9628,415.8938,171.2505,422.4649,163.9143" style="stroke:#4A5568;stroke-width:1;stroke-linejoin:miter;stroke-miterlimit:10;"/><path d="M277.1142,404.5993 C286.8852,400.3348 295.8782,394.5165 303,386.6211 C340.2998,345.2694 286.148,306.0558 321,262.6211 C338.2542,241.1178 360.2102,260.7964 379,240.6211 C397.9744,220.2475 376.9194,199.9053 397,180.6211 C404.3354,173.5766 408.5298,170.173 417.9038,165.9628" fill="none" style="stroke:#4A5568;stroke-width:1;stroke-dasharray:7,7;"/><text fill="#000000" font-family="Segoe UI" font-size="13" lengthAdjust="spacing" textLength="52.1333" x="324" y="235.6494">&#171;extend&#187;</text></g><g class="link" data-entity-1="ent0012" data-entity-2="ent0013" data-link-type="dependency" id="lnk63"><polygon fill="#4A5568" points="747.6786,268.0981,738.7016,264.0469,742.6787,268.0696,738.6559,272.0467,747.6786,268.0981" style="stroke:#4A5568;stroke-width:1;stroke-linejoin:miter;stroke-miterlimit:10;"/><path d="M607.5028,163.948 C616.8826,168.1522 625.6482,173.5937 633,180.6211 C652.8179,199.5646 629.9562,222.0494 651,239.6211 C677.4229,261.6844 709.7096,267.8816 742.6787,268.0696" fill="none" style="stroke:#4A5568;stroke-width:1;stroke-dasharray:7,7;"/><text fill="#000000" font-family="Segoe UI" font-size="13" lengthAdjust="spacing" textLength="54.6216" x="653" y="234.6494">&#171;include&#187;</text></g><g class="link" data-entity-1="ent0012" data-entity-2="ent0014" data-link-type="dependency" id="lnk64"><polygon fill="#4A5568" points="742.1863,321.0233,733.3631,316.647,737.1907,320.8123,733.0255,324.6399,742.1863,321.0233" style="stroke:#4A5568;stroke-width:1;stroke-linejoin:miter;stroke-miterlimit:10;"/><path d="M607.5832,162.6282 C617.1281,167.0439 625.9111,172.8959 633,180.6211 C665.901,216.4753 616.2559,254.5499 651,288.6211 C674.7102,311.872 704.9182,319.4491 737.1907,320.8123" fill="none" style="stroke:#4A5568;stroke-width:1;stroke-dasharray:7,7;"/><text fill="#000000" font-family="Segoe UI" font-size="13" lengthAdjust="spacing" textLength="54.6216" x="653" y="283.6494">&#171;include&#187;</text></g><g class="link" data-entity-1="ent0015" data-entity-2="ent0016" data-link-type="dependency" id="lnk65"><polygon fill="#4A5568" points="756.6402,185.5695,749.1607,179.1619,751.8492,184.1391,746.872,186.8275,756.6402,185.5695" style="stroke:#4A5568;stroke-width:1;stroke-linejoin:miter;stroke-miterlimit:10;"/><path d="M599.7679,103.4233 C611.6655,107.5701 623.1759,113.1421 633,120.6211 C645.9836,130.5053 638.3337,142.3334 651,152.6211 C678.4954,174.9532 693.1285,166.2559 727,176.6211 C736.5719,179.5503 741.9129,181.1724 751.8492,184.1391" fill="none" style="stroke:#4A5568;stroke-width:1;stroke-dasharray:7,7;"/><text fill="#000000" font-family="Segoe UI" font-size="13" lengthAdjust="spacing" textLength="54.6216" x="653" y="147.6494">&#171;include&#187;</text></g><g class="link" data-entity-1="ent0015" data-entity-2="ent0017" data-link-type="dependency" id="lnk66"><polygon fill="#4A5568" points="749.9744,136.8076,741.8962,131.1736,745.0651,135.8595,740.3792,139.0285,749.9744,136.8076" style="stroke:#4A5568;stroke-width:1;stroke-linejoin:miter;stroke-miterlimit:10;"/><path d="M599.8833,107.8211 C646.9581,116.9125 700.1602,127.1872 745.0651,135.8595" fill="none" style="stroke:#4A5568;stroke-width:1;stroke-dasharray:7,7;"/><text fill="#000000" font-family="Segoe UI" font-size="13" lengthAdjust="spacing" textLength="54.6216" x="653" y="113.6494">&#171;include&#187;</text></g><g class="link" data-entity-1="ent0015" data-entity-2="ent0018" data-link-type="dependency" id="lnk67"><polygon fill="#4A5568" points="726.7617,93.0009,717.7881,88.942,721.7618,92.9681,717.7357,96.9419,726.7617,93.0009" style="stroke:#4A5568;stroke-width:1;stroke-linejoin:miter;stroke-miterlimit:10;"/><path d="M599.8833,92.1702 C639.1859,92.4275 681.1817,92.7025 721.7618,92.9681" fill="none" style="stroke:#4A5568;stroke-width:1;stroke-dasharray:7,7;"/><text fill="#000000" font-family="Segoe UI" font-size="13" lengthAdjust="spacing" textLength="54.6216" x="653" y="87.6494">&#171;include&#187;</text></g><g class="link" data-entity-1="ent0019" data-entity-2="ent0015" data-link-type="dependency" id="lnk68"><polygon fill="#4A5568" points="434.0058,111.181,424.3032,109.49,429.1559,112.3971,426.2489,117.2498,434.0058,111.181" style="stroke:#4A5568;stroke-width:1;stroke-linejoin:miter;stroke-miterlimit:10;"/><path d="M271.2236,154.5092 C309.2144,144.0262 355.406,131.4554 397,120.6211 C408.9483,117.5088 416.7539,115.5068 429.1559,112.3971" fill="none" style="stroke:#4A5568;stroke-width:1;stroke-dasharray:7,7;"/><text fill="#000000" font-family="Segoe UI" font-size="13" lengthAdjust="spacing" textLength="52.1333" x="324" y="120.6494">&#171;extend&#187;</text></g><g class="link" data-entity-1="ent0020" data-entity-2="ent0021" data-link-type="dependency" id="lnk69"><polygon fill="#4A5568" points="442.7711,782.7454,433.9397,778.3856,437.7751,782.5437,433.617,786.3791,442.7711,782.7454" style="stroke:#4A5568;stroke-width:1;stroke-linejoin:miter;stroke-miterlimit:10;"/><path d="M262.2664,775.4579 C315.7455,777.617 384.06,780.3751 437.7751,782.5437" fill="none" style="stroke:#4A5568;stroke-width:1;stroke-dasharray:7,7;"/><text fill="#000000" font-family="Segoe UI" font-size="13" lengthAdjust="spacing" textLength="54.6216" x="323" y="772.6494">&#171;include&#187;</text></g><g class="link" data-entity-1="ent0020" data-entity-2="ent0022" data-link-type="dependency" id="lnk70"><polygon fill="#4A5568" points="438.1479,826.4982,429.9387,821.0568,433.2176,825.6665,428.6079,828.9453,438.1479,826.4982" style="stroke:#4A5568;stroke-width:1;stroke-linejoin:miter;stroke-miterlimit:10;"/><path d="M255.1164,789.1984 C276.0164,794.4412 299.4422,800.054 321,804.6211 C359.4432,812.7654 397.5534,819.6499 433.2176,825.6665" fill="none" style="stroke:#4A5568;stroke-width:1;stroke-dasharray:7,7;"/><text fill="#000000" font-family="Segoe UI" font-size="13" lengthAdjust="spacing" textLength="54.6216" x="323" y="799.6494">&#171;include&#187;</text></g><g class="link" data-entity-1="ent0020" data-entity-2="ent0023" data-link-type="dependency" id="lnk71"><polygon fill="#4A5568" points="429.408,874.579,421.7138,868.4309,424.5709,873.3132,419.6886,876.1703,429.408,874.579" style="stroke:#4A5568;stroke-width:1;stroke-linejoin:miter;stroke-miterlimit:10;"/><path d="M259.2506,789.1267 C274.6157,794.9192 290.1786,802.581 303,812.6211 C314.355,821.5129 309.5731,830.8219 321,839.6211 C349.2853,861.4021 362.7534,855.5395 397,865.6211 C407.4392,868.6942 413.6277,870.4496 424.5709,873.3132" fill="none" style="stroke:#4A5568;stroke-width:1;stroke-dasharray:7,7;"/><text fill="#000000" font-family="Segoe UI" font-size="13" lengthAdjust="spacing" textLength="54.6216" x="323" y="834.6494">&#171;include&#187;</text></g><g class="link" data-entity-1="ent0024" data-entity-2="ent0021" data-link-type="dependency" id="lnk72"><polygon fill="#4A5568" points="442.7074,771.5946,434.8328,765.6792,437.8346,770.474,433.0398,773.4757,442.7074,771.5946" style="stroke:#4A5568;stroke-width:1;stroke-linejoin:miter;stroke-miterlimit:10;"/><path d="M256.2841,725.4684 C292.6701,731.7548 338.8019,740.9263 379,752.6211 C387.2419,755.0189 388.7866,757.1273 397,759.6211 C411.6342,764.0644 422.6369,766.9789 437.8346,770.474" fill="none" style="stroke:#4A5568;stroke-width:1;stroke-dasharray:7,7;"/><text fill="#000000" font-family="Segoe UI" font-size="13" lengthAdjust="spacing" textLength="52.1333" x="324" y="732.6494">&#171;extend&#187;</text></g><g class="link" data-entity-1="ent0026" data-entity-2="ent0022" data-link-type="dependency" id="lnk73"><polygon fill="#4A5568" points="438.2755,846.6027,428.5334,845.1566,433.4578,847.9405,430.6739,852.8649,438.2755,846.6027" style="stroke:#4A5568;stroke-width:1;stroke-linejoin:miter;stroke-miterlimit:10;"/><path d="M221.5112,856.2455 C246.8872,870.3121 284.9859,888.8973 321,896.6211 C346.2046,902.0266 356.6599,909.4824 379,896.6211 C392.8073,888.6721 384.1809,875.0814 397,865.6211 C409.0768,856.7086 418.7976,852.0115 433.4578,847.9405" fill="none" style="stroke:#4A5568;stroke-width:1;stroke-dasharray:7,7;"/><text fill="#000000" font-family="Segoe UI" font-size="13" lengthAdjust="spacing" textLength="52.1333" x="324" y="891.6494">&#171;extend&#187;</text></g><g class="link" data-entity-1="ent0027" data-entity-2="ent0023" data-link-type="dependency" id="lnk74"><polygon fill="#4A5568" points="435.9541,914.6876,426.2458,913.0299,431.1084,915.9203,428.218,920.7829,435.9541,914.6876" style="stroke:#4A5568;stroke-width:1;stroke-linejoin:miter;stroke-miterlimit:10;"/><path d="M261.032,928.1116 C296.4111,931.5085 340.1212,933.4417 379,928.6211 C382.313,928.2103 403.0726,923.0522 431.1084,915.9203" fill="none" style="stroke:#4A5568;stroke-width:1;stroke-dasharray:7,7;"/><text fill="#000000" font-family="Segoe UI" font-size="13" lengthAdjust="spacing" textLength="52.1333" x="324" y="923.6494">&#171;extend&#187;</text></g><g class="link" data-entity-1="ent0028" data-entity-2="ent0029" data-link-type="dependency" id="lnk75"><polygon fill="#4A5568" points="396.9397,1064.4453,388.2436,1059.8217,391.9521,1064.0933,387.6805,1067.8019,396.9397,1064.4453" style="stroke:#4A5568;stroke-width:1;stroke-linejoin:miter;stroke-miterlimit:10;"/><path d="M232.0723,1025.6701 C257.102,1036.0684 290.3003,1048.2968 321,1054.6211 C345.3246,1059.6321 366.7255,1062.3133 391.9521,1064.0933" fill="none" style="stroke:#4A5568;stroke-width:1;stroke-dasharray:7,7;"/><text fill="#000000" font-family="Segoe UI" font-size="13" lengthAdjust="spacing" textLength="54.6216" x="323" y="1049.6494">&#171;include&#187;</text></g><g class="link" data-entity-1="ent0028" data-entity-2="ent0030" data-link-type="dependency" id="lnk76"><polygon fill="#4A5568" points="445.3425,961.988,435.776,959.6468,440.4217,962.8743,437.1942,967.5201,445.3425,961.988" style="stroke:#4A5568;stroke-width:1;stroke-linejoin:miter;stroke-miterlimit:10;"/><path d="M269.5368,993.6548 C323.1315,984.0011 388.861,972.1617 440.4217,962.8743" fill="none" style="stroke:#4A5568;stroke-width:1;stroke-dasharray:7,7;"/><text fill="#000000" font-family="Segoe UI" font-size="13" lengthAdjust="spacing" textLength="54.6216" x="323" y="969.6494">&#171;include&#187;</text></g><g class="link" data-entity-1="ent0028" data-entity-2="ent0031" data-link-type="dependency" id="lnk77"><polygon fill="#4A5568" points="434.7701,1020.4853,425.1913,1018.1945,429.854,1021.3975,426.6509,1026.0602,434.7701,1020.4853" style="stroke:#4A5568;stroke-width:1;stroke-linejoin:miter;stroke-miterlimit:10;"/><path d="M269.5175,1022.3193 C286.424,1024.9421 304.2636,1027.2677 321,1028.6211 C346.6939,1030.6988 353.3388,1031.0697 379,1028.6211 C397.1766,1026.8867 411.6291,1024.7793 429.854,1021.3975" fill="none" style="stroke:#4A5568;stroke-width:1;stroke-dasharray:7,7;"/><text fill="#000000" font-family="Segoe UI" font-size="13" lengthAdjust="spacing" textLength="54.6216" x="323" y="1023.6494">&#171;include&#187;</text></g><g class="link" data-entity-1="ent0032" data-entity-2="ent0033" data-link-type="dependency" id="lnk78"><polygon fill="#4A5568" points="398.3707,337.5486,388.982,334.5733,393.4017,338.1041,389.8709,342.5238,398.3707,337.5486" style="stroke:#4A5568;stroke-width:1;stroke-linejoin:miter;stroke-miterlimit:10;"/><path d="M261.8692,352.8096 C301.7295,348.3532 347.7328,343.21 393.4017,338.1041" fill="none" style="stroke:#4A5568;stroke-width:1;stroke-dasharray:7,7;"/><text fill="#000000" font-family="Segoe UI" font-size="13" lengthAdjust="spacing" textLength="54.6216" x="323" y="334.6494">&#171;include&#187;</text></g><g class="link" data-entity-1="ent0032" data-entity-2="ent0034" data-link-type="dependency" id="lnk79"><polygon fill="#4A5568" points="434.5746,272.2581,424.9688,270.0834,429.6699,273.2298,426.5235,277.9309,434.5746,272.2581" style="stroke:#4A5568;stroke-width:1;stroke-linejoin:miter;stroke-miterlimit:10;"/><path d="M261.5478,352.111 C275.918,348.429 290.4763,343.1597 303,335.6211 C313.5319,329.2815 310.7448,321.3991 321,314.6211 C354.7268,292.3299 392.8218,280.5298 429.6699,273.2298" fill="none" style="stroke:#4A5568;stroke-width:1;stroke-dasharray:7,7;"/><text fill="#000000" font-family="Segoe UI" font-size="13" lengthAdjust="spacing" textLength="54.6216" x="323" y="282.6494">&#171;include&#187;</text></g><g class="link" data-entity-1="ent0035" data-entity-2="ent0036" data-link-type="dependency" id="lnk80"><polygon fill="#4A5568" points="435.9098,603.6205,428.3423,597.3171,431.0994,602.2565,426.16,605.0137,435.9098,603.6205" style="stroke:#4A5568;stroke-width:1;stroke-linejoin:miter;stroke-miterlimit:10;"/><path d="M261.6687,550.6112 C298.224,548.4061 342.8068,550.6837 379,567.6211 C389.8314,572.6899 386.6964,581.5509 397,587.6211 C408.8544,594.6049 417.5626,598.4183 431.0994,602.2565" fill="none" style="stroke:#4A5568;stroke-width:1;stroke-dasharray:7,7;"/><text fill="#000000" font-family="Segoe UI" font-size="13" lengthAdjust="spacing" textLength="54.6216" x="323" y="546.6494">&#171;include&#187;</text></g><g class="link" data-entity-1="ent0035" data-entity-2="ent0037" data-link-type="dependency" id="lnk81"><polygon fill="#4A5568" points="422.8799,715.4239,416.2018,708.1849,418.2892,713.4425,413.0316,715.5299,422.8799,715.4239" style="stroke:#4A5568;stroke-width:1;stroke-linejoin:miter;stroke-miterlimit:10;"/><path d="M233.6705,577.2062 C255.4586,586.9416 281.907,600.4989 303,616.6211 C312.5012,623.8832 311.03,630.0173 321,636.6211 C343.7328,651.6785 359.1085,637.9707 379,656.6211 C394.1137,670.7918 381.3245,686.0744 397,699.6211 C404.6156,706.2025 408.898,709.3892 418.2892,713.4425" fill="none" style="stroke:#4A5568;stroke-width:1;stroke-dasharray:7,7;"/><text fill="#000000" font-family="Segoe UI" font-size="13" lengthAdjust="spacing" textLength="54.6216" x="323" y="631.6494">&#171;include&#187;</text></g><g class="link" data-entity-1="ent0035" data-entity-2="ent0038" data-link-type="dependency" id="lnk82"><polygon fill="#4A5568" points="425.8898,656.9361,418.8899,650.0078,421.2139,655.1652,416.0565,657.4893,425.8898,656.9361" style="stroke:#4A5568;stroke-width:1;stroke-linejoin:miter;stroke-miterlimit:10;"/><path d="M256.988,577.1217 C308.9343,590.5047 373.9036,607.7603 379,611.6211 C391.3943,621.0104 384.4972,632.3767 397,641.6211 C405.666,648.0286 410.9043,651.2608 421.2139,655.1652" fill="none" style="stroke:#4A5568;stroke-width:1;stroke-dasharray:7,7;"/><text fill="#000000" font-family="Segoe UI" font-size="13" lengthAdjust="spacing" textLength="52.1333" x="324" y="589.6494">&#171;extend&#187;</text></g><g class="link" data-entity-1="ent0025" data-entity-2="ent0037" data-link-type="dependency" id="lnk83"><polygon fill="#4A5568" points="430.3532,708.5795,422.6009,702.5048,425.5043,707.3597,420.6493,710.2631,430.3532,708.5795" style="stroke:#4A5568;stroke-width:1;stroke-linejoin:miter;stroke-miterlimit:10;"/><path d="M285.5683,672.1585 C331.3399,683.6724 381.1377,696.1992 425.5043,707.3597" fill="none" style="stroke:#4A5568;stroke-width:1;stroke-dasharray:7,7;"/><text fill="#000000" font-family="Segoe UI" font-size="13" lengthAdjust="spacing" textLength="52.1333" x="324" y="676.6494">&#171;extend&#187;</text></g><g class="legend" data-source-line="134"><rect fill="none" height="125.7266" rx="7.5" ry="7.5" style="stroke:#000000;stroke-width:1;" width="811.7119" x="61.644" y="1113.6211"/><text fill="#000000" font-family="Segoe UI" font-size="14" font-weight="700" lengthAdjust="spacing" textLength="55.7061" x="70.5063" y="1135.7285">Use case</text><text fill="#000000" font-family="Segoe UI" font-size="14" font-weight="700" lengthAdjust="spacing" textLength="159.2705" x="304.6167" y="1135.7285">Note / integration point</text><text fill="#000000" font-family="Segoe UI" font-size="14" lengthAdjust="spacing" textLength="184.8848" x="70.479" y="1154.3496">Redirect to Client Registration</text><text fill="#000000" font-family="Segoe UI" font-size="14" lengthAdjust="spacing" textLength="533.9824" x="304.5894" y="1154.3496">Visitors may browse and view profiles, but Book Now redirects to registration (Dinuka).</text><text fill="#000000" font-family="Segoe UI" font-size="14" lengthAdjust="spacing" textLength="128.6797" x="70.479" y="1172.9707">Start Pay and Review</text><text fill="#000000" font-family="Segoe UI" font-size="14" lengthAdjust="spacing" textLength="461.3369" x="304.5894" y="1172.9707">Hands the booking over to Visal's Payments module (cash / card + review).</text><text fill="#000000" font-family="Segoe UI" font-size="14" lengthAdjust="spacing" textLength="110.5918" x="70.479" y="1191.5918">Download Invoice</text><text fill="#000000" font-family="Segoe UI" font-size="14" lengthAdjust="spacing" textLength="548.3447" x="304.5894" y="1191.5918">Displays the invoice PDF generated by Dinuka's module - the Client never generates one.</text><text fill="#000000" font-family="Segoe UI" font-size="14" lengthAdjust="spacing" textLength="202.7129" x="70.479" y="1210.2129">Respond to Reschedule Proposal</text><text fill="#000000" font-family="Segoe UI" font-size="14" lengthAdjust="spacing" textLength="559.9316" x="304.5894" y="1210.2129">Accept / Reject shown inline in the notification bell; proposal comes from Maheli's module.</text><text fill="#000000" font-family="Segoe UI" font-size="14" lengthAdjust="spacing" textLength="226.4404" x="70.479" y="1228.834">Identify Other Party from Booking ID</text><text fill="#000000" font-family="Segoe UI" font-size="14" lengthAdjust="spacing" textLength="411.6533" x="304.5894" y="1228.834">v3 change: complaints are booking-first; the token is now optional.</text><line style="stroke:#000000;stroke-width:1;" x1="66.644" x2="868.356" y1="1120.6211" y2="1120.6211"/><line style="stroke:#000000;stroke-width:1;" x1="66.644" x2="868.356" y1="1139.2422" y2="1139.2422"/><line style="stroke:#000000;stroke-width:1;" x1="66.644" x2="868.356" y1="1157.8633" y2="1157.8633"/><line style="stroke:#000000;stroke-width:1;" x1="66.644" x2="868.356" y1="1176.4844" y2="1176.4844"/><line style="stroke:#000000;stroke-width:1;" x1="66.644" x2="868.356" y1="1195.1055" y2="1195.1055"/><line style="stroke:#000000;stroke-width:1;" x1="66.644" x2="868.356" y1="1213.7266" y2="1213.7266"/><line style="stroke:#000000;stroke-width:1;" x1="66.644" x2="868.356" y1="1232.3477" y2="1232.3477"/><line style="stroke:#000000;stroke-width:1;" x1="66.644" x2="66.644" y1="1120.6211" y2="1232.3477"/><line style="stroke:#000000;stroke-width:1;" x1="300.7544" x2="300.7544" y1="1120.6211" y2="1232.3477"/><line style="stroke:#000000;stroke-width:1;" x1="868.356" x2="868.356" y1="1120.6211" y2="1232.3477"/></g><?plantuml-src fLTBSzis4BxpLspTWvrfv8gadivZHgQigJjnef7jzD8BH48IQf1G0KYAslI_Tq4I52ZAJcQYWmrXlztziBlOXNvQIx9C2N2o5niDAgMQPCGxXtS_y47rEv5iE8K0MX1nHZCDztkbQOgYJxkCoYjuM179CcLypUZYgfJ3X8iTR3keTqzZpKIceFCQ_7RB7xw6Rd0Pv7_37sNeSRhGe0L8jbnfI9Wil7dgYMLh8aaASn8_BQNOP4aak93myoJ_E0Yr8edOiMm92y8LTIGZASMkLEkCkjtUm14cT44sN4z4fZ-IbE91buB2u-rfo3txXu8VEiADeZ5H5Fxr0AwFITvSJpf84YL29bIMky5rBxfkuwwnMExvew0THDv_ZcKJ198j-JEs9_t9Q18rR8_3VcTGshxNUzIU2vxK39DO8_IqqPkRwsXmR3HgTtk1ZpOypJHQVAwUuCBMqIlFAxoSVMQAuU8CY8BFj_Tskz3BTwCFjvvtE6mfAfsS8K-aOwDyTesfnFyVI9QOL4_9akP67YFVXNrcT0VJpPop62ACX35eiEhFx68qDvVhLuY8f5Ggiq84ydfLMWfSI_URUSgqXM1OPLh2mXgncozhZ9Mf7xbbCKNh6Yj9xajmfy7kGQnXmhOKfb9i6GPRbT1kpJqbCbvL69ZlmPHf2Usvq0dZ6X6LEOCTCwKbYtM9xxlugQJRF4pclzWe-4F8fn8uQ0RJCYYZYjyNZ5iYmoPUIBqGd0bSAMtFvhUVDppBwLH8lnRUI58CA9QbU39vdz6_DrJPO_drZ56EnLH1FuYOc6PYiQ6BVSIaaGH-5tEOheGMbVTwlWXdYN5VSHrj2UDapZZJDiD-BMypMdGnqzNAWfxHfSb6ZKpFQyJZRc-fLsJw3L1vVWKFP6vHpPpXiH0XO2nSN3DNaKZNd6gQb1eLDgYbAo9PJBbbPo5-_TXgBRB4d1gNyOhcZGB3jXQASAjIJvScqbpEFU2TBel00ckv6ejTbcVhDjiAl68MrAd5y0udvfBQcDUhDEZMSr_cbAL4xh4Du8n3xcPzL3D1xPv5AsnKg4UKsc6Nj9Z-AKpX7gPu1JUoeZ7mJdOOJ09XcItge9QdsmIFmnPx-AHNvX9YpFQma2AjwlnsRFjI-yHjgAp3mtvjYOH-i_m-2dJ3YkFR0Wo31coKPJWsOfeYhGeMDYytzY6H4NxQRAUUEFbKWndGZ18RuB1h1j0vj5ej6EL311CWObQODDlV_dWuWH3vFXyNXtNWh3lEUkXvE9mgXSCwSDQXi-uuww6hwohWTNOirSowiC0r7BYMiOoTBwuVJ5GPeHdbHM1MRFsTmSa3X0RXyZAt1LVmzYtzWhCpUV_UGqcdb7Hp2SjYlaaeYWwINbtd8EW_9nWy9nWU2uQbm6ytt5SY_qZacT1ROTZGEyWwByYQn_LxLXOqWkJthMpGrAjam-TbGVDyWL-twKGb2EicNL6dRj5b6NIjhDVqLidwByW6pL07DW_XYIDKiXCv2gkQQ-Re8Eky8Eis3d-aTZWyfqjSuQjOQv5Y0_hw3Xwn_-HD2DVOWIZE0koKT5dCQbWBqpU_6YnyOwuZedpmAaXnfCsBvwgPRFbRQrqC1FKQvflYYO8ET_ZKBwog_4UGQ-zYpBBD4tbrMVe_DIrn-pVyXiehyzelne7OufX0QqY7y7DbLF9U3MdnUB_00w_me36H2Vm2nLkmSdCyQyqMKpX1zeKNLcvFnnF0S59aYw-7_C5fw9vNRbevl8nKHWqfYrSWCdfPnVMbXmC2Hd5Cr-RPFgD_cVYh5L947fnbXaxk9dEdnvno_iO4lB0GYnGzvXFpZgmePnL7I-5xHYp2jY74-NI_CZQBeQe0VqlOqBSMJ2hz9cUanHD5bWgfxK2i3J72ZKCimQ8GlVy1?></g></svg>